<svg xmlns="http://www.w3.org/2000/svg" width="144" height="209.056" viewBox="0 0 144 209.056">
  <g id="_5740107_cash_currency_finance_money_payment_icon" data-name="5740107_cash_currency_finance_money_payment_icon" transform="translate(-87.741 -62.999)">
    <path id="Path_50" data-name="Path 50" d="M99.39,27.472H91.682V5.415a4.289,4.289,0,0,0-2.217-3.661,5.654,5.654,0,0,0-4.685-.441L9.212,27.781a5.923,5.923,0,0,0-1.814,1.1A10.854,10.854,0,0,0,1,38.368v48.79c.028,6.008,5.583,10.872,12.444,10.9H99.39c6.861-.024,12.416-4.888,12.444-10.9V38.368c-.028-6.008-5.583-10.872-12.444-10.9Zm-17.784,0H37.223L81.607,11.944Zm20.152,44.114H81.607c-5.565,0-10.076-3.95-10.076-8.823s4.511-8.823,10.076-8.823h20.152ZM81.607,45.118c-11.129,0-20.152,7.9-20.152,17.646s9.022,17.646,20.152,17.646h20.152v6.749a2.235,2.235,0,0,1-2.368,2.073H13.444a2.235,2.235,0,0,1-2.368-2.073V38.368A2.235,2.235,0,0,1,13.444,36.3H99.39a2.235,2.235,0,0,1,2.368,2.073v6.749Z" transform="translate(119.907 174)"/>
    <circle id="Ellipse_2" data-name="Ellipse 2" cx="1" cy="1" r="1" transform="translate(87.741 62.999)"/>
  </g>
</svg>
