<svg xmlns="http://www.w3.org/2000/svg" width="135.372" height="145.322" viewBox="0 0 135.372 145.322">
  <path id="_104436_store_appstore_apple_app_icon" data-name="104436_store_appstore_apple_app_icon" d="M71.408,5.157c-37.382,0-67.686,32.526-67.686,72.66s30.3,72.662,67.686,72.662,67.686-32.532,67.686-72.662S108.787,5.157,71.408,5.157ZM26.36,79.844v-12.9a1.928,1.928,0,0,1,1.858-1.989H48.987L39.963,81.838H28.221A1.934,1.934,0,0,1,26.36,79.844ZM41.142,107.1l-6.9,5.037c-.935.685-1.589.26-1.462-.95l.926-8.64c.129-1.2,1.034-1.694,2.009-1.089l5.343,3.29A1.321,1.321,0,0,1,41.142,107.1Zm4.467-5.683a1.983,1.983,0,0,1-2.8.806l-5.346-3.3a2.3,2.3,0,0,1-.756-3l7.537-14.09,9.032-16.881,8.191-15.326a1.981,1.981,0,0,1,2.8-.806l5.341,3.284a2.3,2.3,0,0,1,.756,3.01L62.849,69.168,56.084,81.835ZM60.364,81.838l9.024-16.881h8.177c3.161,7.716,5.519,13.1,7.295,16.881ZM92.339,87.5c-2.136-1.16-12.8-27.572-15.53-34.459S65.825,27.8,68.489,26.37c1.9-1.015,8.73,13.423,13.834,22.1,2.916,4.951,7.644,14.358,11.412,22,.049.1.1.2.146.3.17.345.338.69.506,1.027.049.1.1.189.14.283.151.3.294.6.44.894q.12.261.247.5c.091.2.187.4.28.587.129.26.258.513.388.767.016.053.038.091.058.139,1.633,3.326,2.878,5.89,3.373,6.881.038.08.08.156.107.212,1.311,2.552-1.251,4.686-2.68,5.314S94.48,88.643,92.339,87.5ZM99.345,99.64,96.13,94.176a2.253,2.253,0,0,1,.756-3.146l3.065-1.694a2.2,2.2,0,0,1,3.018,1.077l2.545,5.249a2.7,2.7,0,0,1-.863,3.379l-2.191,1.408A2.215,2.215,0,0,1,99.345,99.64ZM112.437,115.3c-.676-2.322-5.813-2.473-8.117-5.955s-.4-5.261.4-6.09C114.054,97.6,112.437,115.3,112.437,115.3Zm2.669-35.453a1.931,1.931,0,0,1-1.858,1.995h-9.964a7.471,7.471,0,0,0-.613-1.706c-.269-.519-1.031-2.074-1.993-4.045C99.293,73.252,97.328,69.23,95.2,64.96h18.042a1.926,1.926,0,0,1,1.858,1.989V79.844Z" transform="translate(-3.722 -5.157)"/>
</svg>
