<svg xmlns="http://www.w3.org/2000/svg" width="182.553" height="105.356" viewBox="0 0 182.553 105.356">
  <path id="_290147_bank_cash_finance_money_payment_icon" data-name="290147_bank_cash_finance_money_payment_icon" d="M179.585,109.356H4.969c-2.195,0-3.969-1.165-3.969-2.605s1.774-2.605,3.969-2.605H179.585c2.195,0,3.969,1.165,3.969,2.605S181.78,109.356,179.585,109.356ZM60.528,83.3c2.195,0,3.969,1.165,3.969,2.605s-1.774,2.605-3.969,2.605H28.78c-2.195,0-3.969-1.165-3.969-2.605S26.585,83.3,28.78,83.3h3.969V49.433H28.78c-2.195,0-3.969-1.165-3.969-2.605s1.774-2.605,3.969-2.605H60.528c2.195,0,3.969,1.167,3.969,2.605s-1.774,2.605-3.969,2.605H56.56V83.3ZM48.623,49.433H40.686V83.3h7.937ZM108.151,83.3c2.195,0,3.969,1.165,3.969,2.605s-1.774,2.605-3.969,2.605H76.4c-2.195,0-3.969-1.165-3.969-2.605S74.208,83.3,76.4,83.3h3.969V49.433H76.4c-2.195,0-3.969-1.165-3.969-2.605s1.774-2.605,3.969-2.605h31.748c2.195,0,3.969,1.167,3.969,2.605s-1.774,2.605-3.969,2.605h-3.969V83.3ZM96.245,49.433H88.308V83.3h7.937Zm75.4,46.9c0,1.441-1.774,2.605-3.969,2.605H16.874c-2.195,0-3.969-1.165-3.969-2.605s1.774-2.605,3.969-2.605H167.679C169.874,93.724,171.648,94.889,171.648,96.33ZM155.774,83.3c2.195,0,3.969,1.165,3.969,2.605s-1.774,2.605-3.969,2.605H124.025c-2.195,0-3.969-1.165-3.969-2.605s1.774-2.605,3.969-2.605h3.969V49.433h-3.969c-2.195,0-3.969-1.165-3.969-2.605s1.774-2.605,3.969-2.605h31.748c2.195,0,3.969,1.167,3.969,2.605s-1.774,2.605-3.969,2.605h-3.969V83.3Zm-11.906-33.87h-7.937V83.3h7.937ZM8.937,33.8,92.277,4l83.34,29.8v5.211H8.937Zm148.983,0L92.277,11.519,26.383,33.8Z" transform="translate(-1 -4)" fill-rule="evenodd"/>
</svg>
