<svg xmlns="http://www.w3.org/2000/svg" width="91.945" height="56.125" viewBox="0 0 91.945 56.125">
  <g id="logo" transform="translate(-146 -65.875)">
    <text id="_" data-name="
" transform="translate(180 89)" fill="#0a0100" font-size="23" font-family="Tahoma-Bold, Tahoma" font-weight="700"><tspan x="0" y="0"></tspan><tspan x="0" y="28"></tspan></text>
    <text id="Q_S_F_S" data-name="Q S F S" transform="translate(146 107)" fill="#0a0100" font-size="24" font-family="SitkaText-Bold, Sitka Text" font-weight="700"><tspan x="0" y="0">Q S F S</tspan></text>
    <path id="Path_1" data-name="Path 1" d="M0,4.782,2.551.689,17.055,0,14.5,4.093Z" transform="matrix(-0.602, 0.799, -0.799, -0.602, 237.945, 68.754)" fill="rgba(15,180,242,0.88)"/>
    <path id="Path_2" data-name="Path 2" d="M0,4.782,2.551.689,17.055,0,14.5,4.093Z" transform="matrix(-0.602, 0.799, -0.799, -0.602, 237.945, 68.754)" fill="rgba(15,180,242,0.88)"/>
    <path id="Path_3" data-name="Path 3" d="M0,4.782,2.551.689,17.055,0,14.5,4.093Z" transform="matrix(-0.602, 0.799, -0.799, -0.602, 237.945, 68.754)" fill="rgba(15,180,242,0.88)"/>
    <path id="Path_4" data-name="Path 4" d="M0,4.782,2.551.689,17.055,0,14.5,4.093Z" transform="matrix(-0.602, 0.799, -0.799, -0.602, 237.945, 68.754)" fill="rgba(15,180,242,0.88)"/>
    <path id="Path_5" data-name="Path 5" d="M0,4.782,2.551.689,17.055,0,14.5,4.093Z" transform="matrix(-0.602, 0.799, -0.799, -0.602, 237.945, 68.754)" fill="rgba(15,180,242,0.88)"/>
    <path id="Path_6" data-name="Path 6" d="M0,4.782,2.551.689,17.055,0,14.5,4.093Z" transform="matrix(-0.602, 0.799, -0.799, -0.602, 237.945, 68.754)" fill="rgba(15,180,242,0.88)"/>
    <path id="Path_7" data-name="Path 7" d="M0,4.782,2.551.689,17.055,0,14.5,4.093Z" transform="matrix(-0.602, 0.799, -0.799, -0.602, 237.945, 68.754)" fill="rgba(15,180,242,0.88)"/>
    <path id="Path_8" data-name="Path 8" d="M0,4.782,2.551.689,17.055,0,14.5,4.093Z" transform="matrix(-0.602, 0.799, -0.799, -0.602, 237.945, 68.754)" fill="rgba(15,180,242,0.88)"/>
    <path id="Path_9" data-name="Path 9" d="M0,4.782,2.551.689,17.055,0,14.5,4.093Z" transform="matrix(-0.602, 0.799, -0.799, -0.602, 237.945, 68.754)" fill="rgba(15,180,242,0.88)"/>
    <path id="Path_10" data-name="Path 10" d="M0,4.782,2.551.689,17.055,0,14.5,4.093Z" transform="matrix(-0.602, 0.799, -0.799, -0.602, 237.945, 68.754)" fill="rgba(15,180,242,0.88)"/>
    <path id="Path_11" data-name="Path 11" d="M0,4.782,2.551.689,17.055,0,14.5,4.093Z" transform="matrix(-0.602, 0.799, -0.799, -0.602, 237.945, 68.754)" fill="rgba(15,180,242,0.88)"/>
    <path id="Path_12" data-name="Path 12" d="M0,4.782,2.551.689,17.055,0,14.5,4.093Z" transform="matrix(-0.602, 0.799, -0.799, -0.602, 237.945, 68.754)" fill="rgba(15,180,242,0.88)"/>
    <path id="Path_13" data-name="Path 13" d="M0,4.782,2.551.689,17.055,0,14.5,4.093Z" transform="matrix(-0.602, 0.799, -0.799, -0.602, 237.945, 68.754)" fill="rgba(15,180,242,0.88)"/>
    <path id="Path_14" data-name="Path 14" d="M0,4.782,2.551.689,17.055,0,14.5,4.093Z" transform="matrix(-0.602, 0.799, -0.799, -0.602, 237.945, 68.754)" fill="rgba(15,180,242,0.88)"/>
    <path id="Path_15" data-name="Path 15" d="M0,4.782,2.551.689,17.055,0,14.5,4.093Z" transform="matrix(-0.602, 0.799, -0.799, -0.602, 237.945, 68.754)" fill="rgba(15,180,242,0.88)"/>
    <path id="Path_16" data-name="Path 16" d="M0,4.782,2.551.689,17.055,0,14.5,4.093Z" transform="matrix(-0.602, 0.799, -0.799, -0.602, 237.945, 68.754)" fill="rgba(15,180,242,0.88)"/>
    <path id="Path_17" data-name="Path 17" d="M0,4.782,2.551.689,17.055,0,14.5,4.093Z" transform="matrix(-0.602, 0.799, -0.799, -0.602, 237.945, 68.754)" fill="rgba(15,180,242,0.88)"/>
    <path id="Path_18" data-name="Path 18" d="M0,4.782,2.551.689,17.055,0,14.5,4.093Z" transform="matrix(-0.602, 0.799, -0.799, -0.602, 237.945, 68.754)" fill="rgba(15,180,242,0.88)"/>
    <path id="Path_19" data-name="Path 19" d="M0,4.782,2.551.689,17.055,0,14.5,4.093Z" transform="matrix(-0.602, 0.799, -0.799, -0.602, 237.945, 68.754)" fill="rgba(15,180,242,0.88)"/>
    <path id="Path_20" data-name="Path 20" d="M0,4.782,2.551.689,17.055,0,14.5,4.093Z" transform="matrix(-0.602, 0.799, -0.799, -0.602, 237.945, 68.754)" fill="rgba(15,180,242,0.88)"/>
    <path id="Path_21" data-name="Path 21" d="M0,4.782,2.551.689,17.055,0,14.5,4.093Z" transform="matrix(-0.602, 0.799, -0.799, -0.602, 237.945, 68.754)" fill="rgba(15,180,242,0.88)"/>
    <path id="Path_22" data-name="Path 22" d="M0,4.782,2.551.689,17.055,0,14.5,4.093Z" transform="matrix(-0.602, 0.799, -0.799, -0.602, 237.945, 68.754)" fill="rgba(15,180,242,0.88)"/>
    <path id="Path_23" data-name="Path 23" d="M0,4.782,2.551.689,17.055,0,14.5,4.093Z" transform="matrix(-0.602, 0.799, -0.799, -0.602, 237.945, 68.754)" fill="rgba(15,180,242,0.88)"/>
    <path id="Path_24" data-name="Path 24" d="M0,4.782,2.551.689,17.055,0,14.5,4.093Z" transform="matrix(-0.602, 0.799, -0.799, -0.602, 237.945, 68.754)" fill="rgba(15,180,242,0.88)"/>
    <path id="Path_25" data-name="Path 25" d="M0,4.782,2.551.689,17.055,0,14.5,4.093Z" transform="matrix(-0.602, 0.799, -0.799, -0.602, 237.945, 68.754)" fill="rgba(15,180,242,0.88)"/>
    <path id="Path_26" data-name="Path 26" d="M0,4.782,2.551.689,17.055,0,14.5,4.093Z" transform="matrix(-0.602, 0.799, -0.799, -0.602, 237.945, 68.754)" fill="rgba(15,180,242,0.88)"/>
    <path id="Path_27" data-name="Path 27" d="M0,4.782,2.551.689,17.055,0,14.5,4.093Z" transform="matrix(-0.602, 0.799, -0.799, -0.602, 237.945, 68.754)" fill="rgba(15,180,242,0.88)"/>
    <path id="Path_36" data-name="Path 36" d="M0,4.782,2.551.689,17.055,0,14.5,4.093Z" transform="matrix(-0.602, 0.799, -0.799, -0.602, 237.945, 77.907)" fill="rgba(45,232,162,0.88)"/>
  </g>
</svg>
